<svg width="29" height="28" viewBox="0 0 29 28" fill="none" xmlns="http://www.w3.org/2000/svg">
<g clip-path="url(#clip0_806_915)">
<path d="M23.4389 2.59252H19.1887C19.1519 2.59391 19.1151 2.58706 19.0809 2.57232C19.0467 2.55759 19.0158 2.53532 18.99 2.50696L17.8248 1.25214C17.776 1.19841 17.7093 1.16766 17.6395 1.16659H11.2442C11.2074 1.16519 11.1706 1.17205 11.1364 1.18678C11.1022 1.20151 11.0714 1.22379 11.0456 1.25214L9.8804 2.50696C9.83151 2.5607 9.76486 2.59144 9.69501 2.59252H5.39177C5.3559 2.59058 5.32006 2.59655 5.28639 2.61001C5.25272 2.62347 5.22189 2.64417 5.19588 2.67084C5.16987 2.69752 5.14923 2.72962 5.1351 2.76519C5.12098 2.80075 5.11372 2.83904 5.11377 2.87772V5.15917C5.11372 5.19785 5.12098 5.23613 5.1351 5.2717C5.14923 5.30726 5.16987 5.33936 5.19588 5.36604C5.22189 5.39272 5.25272 5.41341 5.28639 5.42687C5.32006 5.44034 5.3559 5.4463 5.39177 5.44437H23.3859C23.4561 5.44437 23.5236 5.4143 23.5732 5.36082C23.6229 5.30733 23.6508 5.2348 23.6508 5.15917V2.87772C23.6521 2.811 23.6315 2.74593 23.5928 2.69382C23.5541 2.64171 23.4996 2.60585 23.4389 2.59252Z" fill="url(#paint0_linear_806_915)"/>
<path d="M22.115 6.87029H6.71599C6.68012 6.86836 6.64428 6.87432 6.61061 6.88778C6.57694 6.90125 6.54611 6.92194 6.5201 6.94862C6.49409 6.9753 6.47345 7.0074 6.45932 7.04296C6.4452 7.07852 6.43794 7.11681 6.43799 7.15549V23.6962C6.44149 24.5295 6.75125 25.3274 7.29964 25.9153C7.84803 26.5032 8.59035 26.8333 9.36414 26.8332H19.4138C20.1853 26.8295 20.9242 26.4978 21.4698 25.9103C22.0153 25.3228 22.3234 24.527 22.3269 23.6962V7.15549C22.3281 7.08877 22.3076 7.0237 22.2689 6.97159C22.2301 6.91949 22.1757 6.88362 22.115 6.87029ZM17.2291 15.6398C17.3504 15.773 17.4183 15.9522 17.4183 16.1388C17.4183 16.3254 17.3504 16.5046 17.2291 16.6378C17.1028 16.7743 16.9313 16.8513 16.7524 16.8518C16.5778 16.8491 16.4113 16.7722 16.289 16.6378L14.4485 14.6559L12.5948 16.6378C12.4685 16.7743 12.2971 16.8513 12.1182 16.8518C11.9435 16.8491 11.777 16.7722 11.6548 16.6378C11.5914 16.5738 11.5411 16.4965 11.5065 16.4107C11.472 16.3249 11.4542 16.2323 11.4542 16.1388C11.4542 16.0453 11.472 15.9528 11.5065 15.8669C11.5411 15.7811 11.5914 15.7038 11.6548 15.6398L13.5085 13.6434L11.6548 11.6471C11.5914 11.5831 11.5411 11.5058 11.5065 11.42C11.472 11.3341 11.4542 11.2416 11.4542 11.1481C11.4542 11.0545 11.472 10.962 11.5065 10.8762C11.5411 10.7903 11.5914 10.713 11.6548 10.649C11.7163 10.5822 11.7895 10.5291 11.8702 10.4929C11.9509 10.4567 12.0374 10.4381 12.1248 10.4381C12.2122 10.4381 12.2988 10.4567 12.3795 10.4929C12.4602 10.5291 12.5333 10.5822 12.5948 10.649L14.4485 12.6453L16.289 10.649C16.3506 10.5822 16.4238 10.5291 16.5045 10.4929C16.5852 10.4567 16.6716 10.4381 16.759 10.4381C16.8464 10.4381 16.9331 10.4567 17.0138 10.4929C17.0944 10.5291 17.1675 10.5822 17.2291 10.649C17.3504 10.7823 17.4183 10.9614 17.4183 11.1481C17.4183 11.3347 17.3504 11.5138 17.2291 11.6471L15.3755 13.6434L17.2291 15.6398Z" fill="url(#paint1_linear_806_915)"/>
</g>
<defs>
<linearGradient id="paint0_linear_806_915" x1="5.11377" y1="-0.65187" x2="6.89315" y2="9.78836" gradientUnits="userSpaceOnUse">
<stop stop-color="#91EAE4"/>
<stop offset="0.458333" stop-color="#86A8E7"/>
<stop offset="0.9375" stop-color="#7F7FD5"/>
</linearGradient>
<linearGradient id="paint1_linear_806_915" x1="6.43799" y1="-1.61447" x2="31.4333" y2="25.3252" gradientUnits="userSpaceOnUse">
<stop stop-color="#91EAE4"/>
<stop offset="0.458333" stop-color="#86A8E7"/>
<stop offset="0.9375" stop-color="#7F7FD5"/>
</linearGradient>
<clipPath id="clip0_806_915">
<rect width="18.537" height="25.6667" fill="white" transform="translate(5.16675 1.16656)"/>
</clipPath>
</defs>
</svg>
