<svg width="29" height="28" viewBox="0 0 29 28" fill="none" xmlns="http://www.w3.org/2000/svg">
<g clip-path="url(#clip0_806_837)">
<path fill-rule="evenodd" clip-rule="evenodd" d="M12.6587 19.6432V16.075C12.6587 15.8471 12.7491 15.6287 12.9102 15.4676C13.0713 15.3065 13.2899 15.2159 13.5177 15.2159H19.2666V11.4494C19.2666 11.3793 19.2387 11.312 19.1892 11.2624C19.1396 11.2129 19.0723 11.185 19.0022 11.185H10.3459C10.2758 11.185 10.2085 11.1573 10.1589 11.1077C10.1094 11.0581 10.0815 10.9908 10.0815 10.9207V2.26428C10.0815 2.19418 10.0538 2.12704 10.0042 2.07747C9.95465 2.0279 9.88735 2.00003 9.81725 2.00003H0.764414C0.694313 2.00003 0.627006 2.0279 0.577437 2.07747C0.527868 2.12704 0.5 2.19418 0.5 2.26428V25.7886C0.5 25.8587 0.527868 25.926 0.577437 25.9756C0.627006 26.0251 0.694313 26.0528 0.764414 26.0528H19.0683C19.1384 26.0528 19.2058 26.0251 19.2553 25.9756C19.3049 25.926 19.3326 25.8587 19.3326 25.7886V20.5022H13.5837C13.4655 20.5114 13.3466 20.496 13.2346 20.4569C13.1226 20.4178 13.02 20.3559 12.9331 20.2752C12.8462 20.1945 12.7771 20.0967 12.7298 19.9879C12.6826 19.8791 12.6583 19.7618 12.6587 19.6432ZM11.9185 9.59916H18.6323C18.684 9.59843 18.7344 9.58259 18.7772 9.5535C18.82 9.52441 18.8533 9.48342 18.873 9.43557C18.8927 9.38773 18.8979 9.33503 18.888 9.28425C18.8781 9.23347 18.8536 9.18681 18.8173 9.14987L12.1036 2.44934C12.0685 2.41092 12.0224 2.38445 11.9716 2.37335C11.9208 2.36226 11.8678 2.36708 11.82 2.38739C11.7721 2.40769 11.7318 2.44236 11.7045 2.4866C11.6771 2.53084 11.6642 2.58249 11.6675 2.63438V9.33491C11.6657 9.36898 11.6709 9.40292 11.6827 9.43493C11.6945 9.46694 11.7127 9.49634 11.7362 9.52108C11.7597 9.54581 11.788 9.56539 11.8193 9.57883C11.8507 9.59227 11.8844 9.59921 11.9185 9.59916ZM23.3106 13.022L27.2753 16.9868C27.3994 17.1118 27.4973 17.2604 27.5632 17.4238C27.629 17.5872 27.6614 17.7623 27.6587 17.9384C27.6579 18.1133 27.6225 18.2862 27.5544 18.4473C27.4864 18.6083 27.387 18.7543 27.2621 18.8767L23.2974 22.7093C23.045 22.9547 22.7055 23.0897 22.3536 23.0847C22.0017 23.0798 21.6662 22.9352 21.4208 22.6829C21.1755 22.4305 21.0403 22.0911 21.0452 21.7391C21.0502 21.3872 21.1949 21.0515 21.4473 20.8062L23.1388 19.1806H15.1036C14.7531 19.1806 14.4169 19.0415 14.169 18.7936C13.9212 18.5458 13.782 18.2096 13.782 17.8591C13.782 17.5086 13.9212 17.1723 14.169 16.9245C14.4169 16.6767 14.7531 16.5375 15.1036 16.5375H23.0331L21.434 14.8987C21.1852 14.6499 21.0452 14.3124 21.0452 13.9604C21.0452 13.6085 21.1852 13.2709 21.434 13.022C21.6829 12.7732 22.0204 12.6334 22.3723 12.6334C22.7243 12.6334 23.0617 12.7732 23.3106 13.022Z" fill="url(#paint0_linear_806_837)"/>
</g>
<defs>
<linearGradient id="paint0_linear_806_837" x1="0.5" y1="-8.22241" x2="28.1679" y2="34.0828" gradientUnits="userSpaceOnUse">
<stop stop-color="#91EAE4"/>
<stop offset="0.458333" stop-color="#86A8E7"/>
<stop offset="0.9375" stop-color="#7F7FD5"/>
</linearGradient>
<clipPath id="clip0_806_837">
<rect width="27.1586" height="24" fill="white" transform="translate(0.5 2.00003)"/>
</clipPath>
</defs>
</svg>
