<svg width="22" height="28" viewBox="0 0 22 28" fill="none" xmlns="http://www.w3.org/2000/svg">
<path d="M20.6866 7.4863H15.6433C15.5918 7.4863 15.5424 7.46609 15.506 7.43013C15.4695 7.39417 15.449 7.3454 15.449 7.29454V2.31653C15.448 2.27788 15.4588 2.23982 15.4801 2.20735C15.5014 2.17488 15.5321 2.14952 15.5682 2.13459C15.6044 2.11966 15.6442 2.11586 15.6826 2.12369C15.7209 2.13153 15.756 2.15062 15.7832 2.17847L20.8265 7.15648C20.8547 7.18329 20.874 7.21791 20.8819 7.25577C20.8899 7.29364 20.886 7.33298 20.8709 7.36865C20.8558 7.40432 20.8301 7.43464 20.7972 7.45563C20.7643 7.47663 20.7257 7.48732 20.6866 7.4863Z" fill="white"/>
<path d="M14.6798 8.25327V0.583008H0.692261V27.498H21.9999V8.25327H14.6798ZM16.0242 16.9513H12.9158V20.0195C12.9158 20.3246 12.793 20.6172 12.5744 20.833C12.3558 21.0488 12.0593 21.17 11.7502 21.17C11.441 21.17 11.1446 21.0488 10.926 20.833C10.7074 20.6172 10.5846 20.3246 10.5846 20.0195V16.9513H7.47622C7.16708 16.9513 6.87059 16.8301 6.65199 16.6144C6.43339 16.3986 6.31059 16.106 6.31059 15.8008C6.31059 15.4957 6.43339 15.203 6.65199 14.9873C6.87059 14.7715 7.16708 14.6503 7.47622 14.6503H10.5846V11.5822C10.5846 11.277 10.7074 10.9844 10.926 10.7686C11.1446 10.5528 11.441 10.4316 11.7502 10.4316C12.0593 10.4316 12.3558 10.5528 12.5744 10.7686C12.793 10.9844 12.9158 11.277 12.9158 11.5822V14.6503H16.0242C16.3333 14.6503 16.6298 14.7715 16.8484 14.9873C17.067 15.203 17.1898 15.4957 17.1898 15.8008C17.1898 16.106 17.067 16.3986 16.8484 16.6144C16.6298 16.8301 16.3333 16.9513 16.0242 16.9513Z" fill="white"/>
</svg>
