<svg width="48" height="48" viewBox="0 0 48 48" fill="none" xmlns="http://www.w3.org/2000/svg">
<g clip-path="url(#clip0_957_251)">
<path d="M27.5556 16.4684V8.72531C27.5556 8.53293 27.4818 8.34843 27.3504 8.2124C27.219 8.07636 27.0407 7.99994 26.8548 7.99994H11.3676C11.1817 7.99994 11.0034 8.07636 10.872 8.2124C10.7405 8.34843 10.6667 8.53293 10.6667 8.72531V37.9412C10.6667 38.1336 10.7405 38.3181 10.872 38.4541C11.0034 38.5902 11.1817 38.6666 11.3676 38.6666H35.316C35.4974 38.6666 35.6715 38.592 35.7998 38.4593C35.9281 38.3265 36.0001 38.1465 36.0001 37.9587V17.4473C36.0001 17.2595 35.9281 17.0795 35.7998 16.9467C35.6715 16.814 35.4974 16.7394 35.316 16.7394H27.8175C27.748 16.7394 27.6814 16.7108 27.6323 16.66C27.5832 16.6092 27.5556 16.5403 27.5556 16.4684ZM15.3112 15.4372H23.9921C24.0743 15.4394 24.1525 15.4742 24.2106 15.5344C24.2688 15.5945 24.3024 15.6755 24.3045 15.7606C24.3046 15.8471 24.2719 15.9303 24.2135 15.9923C24.1552 16.0544 24.0757 16.0904 23.9921 16.0927H15.3112C15.2261 16.0927 15.1445 16.0577 15.0843 15.9954C15.0241 15.9331 14.9903 15.8486 14.9903 15.7606C14.9925 15.674 15.0273 15.5918 15.0872 15.5314C15.1471 15.471 15.2275 15.4372 15.3112 15.4372ZM15.3112 19.0204H27.4628C27.5041 19.0192 27.5452 19.0267 27.5837 19.0425C27.6221 19.0583 27.657 19.0821 27.6862 19.1124C27.7155 19.1427 27.7385 19.1788 27.7538 19.2186C27.769 19.2583 27.7764 19.3009 27.7752 19.3437C27.7763 19.3869 27.7691 19.4299 27.7539 19.4701C27.7387 19.5104 27.7159 19.5471 27.6868 19.578C27.6576 19.609 27.6228 19.6336 27.5843 19.6504C27.5458 19.6672 27.5045 19.6758 27.4628 19.6758H15.3112C15.2691 19.6758 15.2274 19.6672 15.1884 19.6505C15.1495 19.6339 15.1141 19.6094 15.0843 19.5785C15.0545 19.5477 15.0309 19.5111 15.0147 19.4708C14.9986 19.4305 14.9903 19.3873 14.9903 19.3437C14.9903 19.3005 14.9986 19.2577 15.0148 19.2179C15.0311 19.1781 15.0549 19.1421 15.0848 19.1119C15.1147 19.0818 15.1502 19.0581 15.189 19.0424C15.2279 19.0267 15.2695 19.0192 15.3112 19.0204ZM14.9903 22.9269C14.9903 22.8388 15.0241 22.7543 15.0843 22.6921C15.1445 22.6298 15.2261 22.5948 15.3112 22.5948H30.9334C31.0185 22.5948 31.1001 22.6298 31.1603 22.6921C31.2205 22.7543 31.2543 22.8388 31.2543 22.9269C31.2543 22.9701 31.246 23.0129 31.2298 23.0527C31.2135 23.0925 31.1897 23.1285 31.1598 23.1587C31.1299 23.1888 31.0945 23.2125 31.0556 23.2282C31.0167 23.2439 30.9752 23.2514 30.9334 23.2502H15.3112C15.2695 23.2514 15.2279 23.2439 15.189 23.2282C15.1502 23.2125 15.1147 23.1888 15.0848 23.1587C15.0549 23.1285 15.0311 23.0925 15.0148 23.0527C14.9986 23.0129 14.9903 22.9701 14.9903 22.9269ZM32.6223 33.3443C32.6223 33.4625 32.5769 33.5759 32.4961 33.6595C32.4154 33.743 32.3058 33.79 32.1916 33.79H15.7334C15.6192 33.79 15.5097 33.743 15.4289 33.6595C15.3481 33.5759 15.3027 33.4625 15.3027 33.3443V26.8072C15.3016 26.7479 15.3119 26.689 15.333 26.6339C15.3542 26.5789 15.3857 26.5287 15.4258 26.4864C15.4659 26.444 15.5138 26.4104 15.5666 26.3875C15.6194 26.3645 15.6761 26.3527 15.7334 26.3527H32.1832C32.2974 26.3527 32.4069 26.3997 32.4877 26.4833C32.5684 26.5669 32.6139 26.6802 32.6139 26.7985L32.6223 33.3443Z" fill="url(#paint0_linear_957_251)"/>
<path d="M34.9108 15.8654H28.6451C28.5801 15.8654 28.5178 15.8387 28.4719 15.7912C28.426 15.7437 28.4001 15.6792 28.4001 15.612V9.12735C28.4001 9.07669 28.4148 9.0272 28.4422 8.98526C28.4696 8.94332 28.5086 8.91084 28.554 8.89203C28.5995 8.87322 28.6494 8.86893 28.6972 8.87972C28.745 8.89051 28.7886 8.91588 28.8224 8.95256L35.0797 15.4285C35.1152 15.4634 35.1396 15.5085 35.15 15.558C35.1605 15.6075 35.1564 15.6591 35.1382 15.7061C35.12 15.7532 35.0886 15.7935 35.0481 15.8219C35.0076 15.8503 34.9597 15.8654 34.9108 15.8654Z" fill="url(#paint1_linear_957_251)"/>
<path d="M19.1113 28.1006V31.1507H20.8002V31.8499H18.2668V28.1006H19.1113Z" fill="url(#paint2_linear_957_251)"/>
<path d="M21.6446 29.2106C21.7257 28.9806 21.8458 28.7675 21.9993 28.5813C22.1537 28.4016 22.3438 28.2585 22.5566 28.1618C22.792 28.0608 23.0448 28.0102 23.2997 28.0133C23.5573 28.0102 23.8129 28.0608 24.0513 28.1618C24.2629 28.2605 24.4527 28.4033 24.6086 28.5813C24.7626 28.7657 24.8802 28.9795 24.9549 29.2106C25.0413 29.46 25.0841 29.7234 25.0815 29.9884C25.0828 30.2504 25.04 30.5106 24.9549 30.7574C24.88 30.9832 24.7623 31.1912 24.6086 31.3692C24.4545 31.547 24.2641 31.6873 24.0513 31.7799C23.8141 31.8852 23.5577 31.9359 23.2997 31.9285C23.0445 31.936 22.7908 31.8853 22.5566 31.7799C22.3426 31.6895 22.1519 31.5489 21.9993 31.3692C21.8461 31.1894 21.7258 30.982 21.6446 30.7574C21.5664 30.5091 21.5265 30.2496 21.5264 29.9884C21.5251 29.7242 21.5651 29.4616 21.6446 29.2106ZM22.3708 30.4516C22.4043 30.5946 22.4615 30.7306 22.5398 30.8536C22.6201 30.9687 22.7239 31.0642 22.8438 31.1332C22.9843 31.2098 23.1409 31.2488 23.2997 31.2468C23.4585 31.2488 23.6152 31.2098 23.7557 31.1332C23.8776 31.067 23.9819 30.971 24.0597 30.8536C24.1415 30.7326 24.199 30.5959 24.2287 30.4516C24.2696 30.3009 24.2895 30.1449 24.2877 29.9884C24.29 29.8289 24.2702 29.67 24.2287 29.5164C24.2005 29.3662 24.143 29.2235 24.0597 29.0969C23.9795 28.9794 23.8759 28.881 23.7557 28.8085C23.6145 28.735 23.4578 28.699 23.2997 28.7037C23.1417 28.699 22.985 28.735 22.8438 28.8085C22.7254 28.8834 22.6221 28.9814 22.5398 29.0969C22.46 29.2254 22.4028 29.3674 22.3708 29.5164C22.3364 29.6712 22.3194 29.8296 22.3202 29.9884C22.3199 30.1443 22.3369 30.2997 22.3708 30.4516Z" fill="url(#paint3_linear_957_251)"/>
<path d="M28.1721 31.8149C28.0072 31.8902 27.8288 31.9289 27.6486 31.9285C27.3933 31.936 27.1396 31.8853 26.9055 31.7799C26.6889 31.6898 26.4954 31.5493 26.3398 31.3692C26.1861 31.1912 26.0684 30.9832 25.9935 30.7574C25.9084 30.5106 25.8655 30.2504 25.8668 29.9884C25.8642 29.7234 25.9071 29.46 25.9935 29.2106C26.0682 28.9795 26.1858 28.7657 26.3398 28.5813C26.4982 28.4023 26.6908 28.2595 26.9055 28.1618C27.1409 28.0608 27.3937 28.0102 27.6486 28.0133C27.8321 28.0118 28.0147 28.0413 28.189 28.1006C28.3609 28.1531 28.5214 28.2391 28.662 28.3541C28.799 28.4697 28.916 28.6086 29.0081 28.7648C29.1006 28.9406 29.1581 29.1338 29.1771 29.3329H28.4171C28.3803 29.1467 28.2817 28.9797 28.1383 28.861C27.9967 28.7533 27.8242 28.6979 27.6486 28.7037C27.4905 28.699 27.3338 28.735 27.1925 28.8085C27.0724 28.881 26.9688 28.9794 26.8886 29.0969C26.8088 29.2254 26.7516 29.3674 26.7197 29.5164C26.6852 29.6712 26.6682 29.8296 26.669 29.9884C26.6687 30.1443 26.6857 30.2997 26.7197 30.4516C26.7532 30.5946 26.8103 30.7306 26.8886 30.8536C26.9664 30.971 27.0707 31.067 27.1925 31.1332C27.333 31.2098 27.4898 31.2488 27.6486 31.2468C27.87 31.2623 28.0884 31.187 28.2566 31.0371C28.4101 30.8754 28.5004 30.6606 28.5099 30.4341H27.6655V29.8485H29.1855V31.8761H28.6788L28.6028 31.4478C28.4906 31.605 28.3427 31.731 28.1721 31.8149Z" fill="url(#paint4_linear_957_251)"/>
</g>
<defs>
<linearGradient id="paint0_linear_957_251" x1="10.6667" y1="-5.03339" x2="48.9303" y2="37.7705" gradientUnits="userSpaceOnUse">
<stop stop-color="#91EAE4"/>
<stop offset="0.458333" stop-color="#86A8E7"/>
<stop offset="0.9375" stop-color="#7F7FD5"/>
</linearGradient>
<linearGradient id="paint1_linear_957_251" x1="28.4001" y1="5.90249" x2="36.8706" y2="16.9857" gradientUnits="userSpaceOnUse">
<stop stop-color="#91EAE4"/>
<stop offset="0.458333" stop-color="#86A8E7"/>
<stop offset="0.9375" stop-color="#7F7FD5"/>
</linearGradient>
<linearGradient id="paint2_linear_957_251" x1="18.2668" y1="26.5072" x2="22.9558" y2="30.7976" gradientUnits="userSpaceOnUse">
<stop stop-color="#91EAE4"/>
<stop offset="0.458333" stop-color="#86A8E7"/>
<stop offset="0.9375" stop-color="#7F7FD5"/>
</linearGradient>
<linearGradient id="paint3_linear_957_251" x1="21.5264" y1="26.3488" x2="26.3404" y2="32.2669" gradientUnits="userSpaceOnUse">
<stop stop-color="#91EAE4"/>
<stop offset="0.458333" stop-color="#86A8E7"/>
<stop offset="0.9375" stop-color="#7F7FD5"/>
</linearGradient>
<linearGradient id="paint4_linear_957_251" x1="25.8667" y1="26.3488" x2="30.7374" y2="31.9386" gradientUnits="userSpaceOnUse">
<stop stop-color="#91EAE4"/>
<stop offset="0.458333" stop-color="#86A8E7"/>
<stop offset="0.9375" stop-color="#7F7FD5"/>
</linearGradient>
<clipPath id="clip0_957_251">
<rect width="25.3333" height="30.6667" fill="white" transform="translate(10.6667 7.99994)"/>
</clipPath>
</defs>
</svg>
