<svg width="48" height="48" viewBox="0 0 48 48" fill="none" xmlns="http://www.w3.org/2000/svg">
<g clip-path="url(#clip0_957_232)">
<path d="M20.1727 13.2914L7.59025 8.04827C7.48968 8.00709 7.38034 7.9906 7.27167 8.00023C7.163 8.00987 7.05839 8.04535 6.96715 8.10354C6.8759 8.16174 6.80072 8.24086 6.74833 8.33393C6.69595 8.42701 6.66797 8.53119 6.66675 8.63728V35.249C6.66858 35.3737 6.70696 35.4953 6.77731 35.5996C6.84766 35.704 6.94709 35.7866 7.06401 35.838L19.6464 41.0811C19.7469 41.1223 19.8564 41.1388 19.9651 41.1292C20.0737 41.1195 20.1783 41.0841 20.2696 41.0259C20.3608 40.9677 20.4359 40.8885 20.4883 40.7955C20.5407 40.7024 20.5688 40.5982 20.57 40.4921V13.8804C20.5681 13.7557 20.5298 13.6341 20.4594 13.5298C20.3891 13.4255 20.2896 13.3428 20.1727 13.2914Z" fill="url(#paint0_linear_957_232)"/>
<path d="M43.6494 24.8785L38.684 20.0505C38.5917 19.96 38.4818 19.8882 38.3608 19.8392C38.2398 19.7901 38.11 19.7649 37.9789 19.7649C37.8478 19.7649 37.718 19.7901 37.597 19.8392C37.4759 19.8882 37.3661 19.96 37.2738 20.0505C37.0888 20.2314 36.985 20.4762 36.985 20.7313C36.985 20.9864 37.0888 21.2311 37.2738 21.412L40.551 24.5984H32.2289C31.9655 24.5984 31.7129 24.7002 31.5267 24.8813C31.3404 25.0623 31.2358 25.3079 31.2358 25.564C31.2358 25.8201 31.3404 26.0657 31.5267 26.2468C31.7129 26.4279 31.9655 26.5296 32.2289 26.5296H40.1736L36.6184 29.3781C36.4168 29.5402 36.289 29.7731 36.263 30.0262C36.237 30.2794 36.3147 30.5322 36.4794 30.7299C36.5718 30.8407 36.6883 30.9302 36.8205 30.992C36.9527 31.0537 37.0974 31.0863 37.2441 31.0872C37.4761 31.0877 37.7009 31.0091 37.8795 30.8651L43.5303 26.3269C43.638 26.2423 43.7263 26.1367 43.7896 26.017C43.8529 25.8973 43.8897 25.766 43.8977 25.6316C43.9134 25.4962 43.8993 25.359 43.8565 25.2292C43.8137 25.0994 43.7432 24.9799 43.6494 24.8785Z" fill="url(#paint1_linear_957_232)"/>
<path d="M29.5078 27.08V23.9805C29.5104 23.4956 29.7104 23.0314 30.0639 22.6894C30.4175 22.3475 30.8959 22.1555 31.3947 22.1555H35.2081C35.2687 22.1555 35.3267 22.1321 35.3696 22.0905C35.4124 22.0488 35.4365 21.9923 35.4365 21.9334V10.0663C35.4365 10.0046 35.4238 9.94355 35.3993 9.88668C35.3747 9.82981 35.3387 9.77828 35.2934 9.73511C35.2481 9.69195 35.1943 9.65801 35.1353 9.63529C35.0764 9.61258 35.0133 9.60154 34.9499 9.60282H17.5113C17.4677 9.6062 17.4264 9.62346 17.394 9.65195C17.3615 9.68043 17.3396 9.71853 17.3316 9.76035C17.3237 9.80216 17.3303 9.84535 17.3502 9.88321C17.3701 9.92107 17.4022 9.95149 17.4417 9.96975L22.2383 11.9589L22.5263 12.3934V37.1318C22.5263 37.1939 22.539 37.2555 22.5634 37.3129C22.5879 37.3703 22.6237 37.4224 22.6689 37.4664C22.7141 37.5103 22.7677 37.5452 22.8267 37.5689C22.8858 37.5927 22.949 37.6049 23.0129 37.6049H34.93C34.9939 37.6049 35.0572 37.5927 35.1162 37.5689C35.1752 37.5452 35.229 37.5103 35.2741 37.4664C35.3193 37.4224 35.3552 37.3703 35.3796 37.3129C35.4041 37.2555 35.4166 37.1939 35.4166 37.1318V29.1367C35.4207 29.1068 35.4187 29.0763 35.4103 29.0472C35.4019 29.0182 35.3875 28.991 35.368 28.9675C35.3485 28.944 35.3242 28.9246 35.2967 28.9106C35.2692 28.8965 35.2391 28.888 35.2081 28.8857H31.3648C30.8747 28.8782 30.4068 28.6856 30.0602 28.3485C29.7136 28.0115 29.5154 27.5566 29.5078 27.08Z" fill="url(#paint2_linear_957_232)"/>
</g>
<defs>
<linearGradient id="paint0_linear_957_232" x1="6.66675" y1="-6.08452" x2="42.406" y2="14.223" gradientUnits="userSpaceOnUse">
<stop stop-color="#91EAE4"/>
<stop offset="0.458333" stop-color="#86A8E7"/>
<stop offset="0.9375" stop-color="#7F7FD5"/>
</linearGradient>
<linearGradient id="paint1_linear_957_232" x1="31.2358" y1="14.9529" x2="44.3073" y2="34.7577" gradientUnits="userSpaceOnUse">
<stop stop-color="#91EAE4"/>
<stop offset="0.458333" stop-color="#86A8E7"/>
<stop offset="0.9375" stop-color="#7F7FD5"/>
</linearGradient>
<linearGradient id="paint2_linear_957_232" x1="17.3284" y1="-2.29822" x2="52.1798" y2="28.221" gradientUnits="userSpaceOnUse">
<stop stop-color="#91EAE4"/>
<stop offset="0.458333" stop-color="#86A8E7"/>
<stop offset="0.9375" stop-color="#7F7FD5"/>
</linearGradient>
<clipPath id="clip0_957_232">
<rect width="37.2706" height="33.1294" fill="white" transform="translate(6.66675 7.99994)"/>
</clipPath>
</defs>
</svg>
