<svg width="19" height="20" viewBox="0 0 19 20" fill="none" xmlns="http://www.w3.org/2000/svg">
<g opacity="0.5">
<mask id="path-1-inside-1_957_227" fill="white">
<path fill-rule="evenodd" clip-rule="evenodd" d="M12.6673 19.5H6.33398V13.167L0 13.167V6.8337H6.33398V0.5H12.6673V6.8337H19V13.167L12.6673 13.167V19.5Z"/>
</mask>
<path d="M6.33398 19.5V20.5H5.33398V19.5H6.33398ZM12.6673 19.5H13.6673V20.5H12.6673V19.5ZM6.33398 13.167V12.167H7.33398V13.167H6.33398ZM0 13.167L7.52824e-08 14.167H-1V13.167H0ZM0 6.8337H-1V5.8337H0V6.8337ZM6.33398 6.8337H7.33398V7.8337H6.33398V6.8337ZM6.33398 0.5H5.33398V-0.5H6.33398V0.5ZM12.6673 0.5V-0.5H13.6673V0.5H12.6673ZM12.6673 6.8337V7.8337H11.6673V6.8337H12.6673ZM19 6.8337V5.8337H20V6.8337H19ZM19 13.167H20V14.167H19V13.167ZM12.6673 13.167H11.6673V12.167H12.6673V13.167ZM6.33398 18.5H12.6673V20.5H6.33398V18.5ZM7.33398 13.167V19.5H5.33398V13.167H7.33398ZM-7.52824e-08 12.167L6.33398 12.167V14.167L7.52824e-08 14.167L-7.52824e-08 12.167ZM1 6.8337V13.167H-1V6.8337H1ZM6.33398 7.8337H0V5.8337H6.33398V7.8337ZM7.33398 0.5V6.8337H5.33398V0.5H7.33398ZM12.6673 1.5H6.33398V-0.5H12.6673V1.5ZM11.6673 6.8337V0.5H13.6673V6.8337H11.6673ZM19 7.8337H12.6673V5.8337H19V7.8337ZM18 13.167V6.8337H20V13.167H18ZM12.6673 12.167L19 12.167V14.167L12.6673 14.167V12.167ZM11.6673 19.5V13.167H13.6673V19.5H11.6673Z" fill="url(#paint0_linear_957_227)" mask="url(#path-1-inside-1_957_227)"/>
</g>
<defs>
<linearGradient id="paint0_linear_957_227" x1="2.04202e-07" y1="27.575" x2="22.8" y2="-3.3" gradientUnits="userSpaceOnUse">
<stop stop-color="#91EAE4"/>
<stop offset="0.458333" stop-color="#86A8E7"/>
<stop offset="0.9375" stop-color="#7F7FD5"/>
</linearGradient>
</defs>
</svg>
