<svg width="48" height="48" viewBox="0 0 48 48" fill="none" xmlns="http://www.w3.org/2000/svg">
<path d="M23.3333 24.772C27.5692 24.772 31 21.3176 31 17.0527C31 12.7878 27.5692 9.33344 23.3333 9.33344C19.0975 9.33344 15.6667 12.7878 15.6667 17.0527C15.6667 21.3176 19.0975 24.772 23.3333 24.772ZM23.3333 27.0878C18.2158 27.0878 8 29.6738 8 34.8071V37.6668C8 38.2191 8.44772 38.6668 9 38.6668H37.6667C38.219 38.6668 38.6667 38.2191 38.6667 37.6668V34.8071C38.6667 29.6738 28.4508 27.0878 23.3333 27.0878Z" fill="url(#paint0_linear_957_246)"/>
<defs>
<linearGradient id="paint0_linear_957_246" x1="8" y1="-3.13323" x2="42.7116" y2="46.0086" gradientUnits="userSpaceOnUse">
<stop stop-color="#91EAE4"/>
<stop offset="0.458333" stop-color="#86A8E7"/>
<stop offset="0.9375" stop-color="#7F7FD5"/>
</linearGradient>
</defs>
</svg>
