<svg width="28" height="29" viewBox="0 0 28 29" fill="none" xmlns="http://www.w3.org/2000/svg">
<g clip-path="url(#clip0_806_872)">
<path d="M12.3762 20.6924C10.6266 20.6924 8.91609 20.1735 7.46135 19.2015C6.00661 18.2295 4.87292 16.8479 4.20337 15.2315C3.53383 13.6151 3.35869 11.8364 3.70002 10.1204C4.04135 8.40447 4.88403 6.82821 6.12118 5.59106C7.35834 4.35391 8.93424 3.5114 10.6502 3.17007C12.3662 2.82874 14.1451 3.00392 15.7615 3.67346C17.3779 4.343 18.7593 5.47685 19.7313 6.93158C20.7033 8.38632 21.2224 10.0966 21.2224 11.8462C21.2224 14.1924 20.2903 16.4424 18.6313 18.1014C16.9723 19.7604 14.7224 20.6924 12.3762 20.6924ZM12.3762 4.17959C10.8599 4.17959 9.37752 4.62924 8.11675 5.47166C6.85597 6.31408 5.87328 7.51142 5.29301 8.91231C4.71274 10.3132 4.56122 11.8547 4.85704 13.3419C5.15286 14.8291 5.88292 16.1952 6.95512 17.2674C8.02732 18.3396 9.3934 19.0697 10.8806 19.3655C12.3678 19.6614 13.9091 19.5096 15.31 18.9293C16.7109 18.349 17.9087 17.3664 18.7511 16.1056C19.5935 14.8448 20.0429 13.3625 20.0429 11.8462C20.0398 9.81387 19.231 7.86565 17.7939 6.42855C16.3568 4.99145 14.4086 4.18271 12.3762 4.17959Z" fill="white"/>
<path d="M12.3761 5.94879C11.2097 5.94879 10.0696 6.29467 9.09974 6.94268C8.12991 7.5907 7.37373 8.51175 6.92737 9.58936C6.48101 10.667 6.36463 11.8528 6.59219 12.9967C6.81974 14.1407 7.38114 15.1915 8.20591 16.0163C9.03068 16.8411 10.0815 17.4028 11.2255 17.6303C12.3694 17.8579 13.5556 17.7411 14.6332 17.2947C15.7108 16.8483 16.6315 16.0925 17.2795 15.1226C17.9275 14.1528 18.2736 13.0126 18.2736 11.8462C18.2736 10.2821 17.6524 8.7821 16.5464 7.67612C15.4404 6.57014 13.9402 5.94879 12.3761 5.94879ZM12.3761 8.30776C11.4377 8.30776 10.5379 8.68057 9.87435 9.34416C9.21076 10.0077 8.8377 10.9078 8.8377 11.8462C8.8482 11.9103 8.84472 11.976 8.82733 12.0386C8.80994 12.1012 8.77899 12.1593 8.73691 12.2089C8.69483 12.2584 8.6427 12.2982 8.58372 12.3254C8.52473 12.3527 8.46038 12.3669 8.39539 12.3669C8.3304 12.3669 8.26605 12.3527 8.20706 12.3254C8.14808 12.2982 8.09595 12.2584 8.05387 12.2089C8.01179 12.1593 7.98084 12.1012 7.96345 12.0386C7.94606 11.976 7.94258 11.9103 7.95308 11.8462C7.9562 10.6866 8.418 9.57539 9.23796 8.75543C10.0579 7.93546 11.1693 7.47345 12.3289 7.47033C12.3931 7.45983 12.4587 7.46338 12.5213 7.48077C12.5839 7.49816 12.6422 7.52897 12.6917 7.57105C12.7413 7.61312 12.7808 7.66548 12.8081 7.72446C12.8354 7.78344 12.8496 7.84765 12.8496 7.91264C12.8496 7.97763 12.8354 8.04184 12.8081 8.10082C12.7808 8.15981 12.7413 8.21216 12.6917 8.25423C12.6422 8.29631 12.5839 8.32708 12.5213 8.34447C12.4587 8.36186 12.3931 8.36545 12.3289 8.35495L12.3761 8.30776Z" fill="white"/>
<path d="M22.4285 25.8928C22.1537 25.8937 21.8824 25.8302 21.6366 25.7073C21.3908 25.5844 21.177 25.4055 21.0129 25.1851L17.4744 20.4672C17.1929 20.0918 17.0723 19.62 17.1387 19.1554C17.205 18.6909 17.4532 18.2718 17.8286 17.9903C18.204 17.7087 18.6755 17.5878 19.14 17.6542C19.6045 17.7206 20.0241 17.9687 20.3056 18.3441L23.8441 23.062C24.1256 23.4374 24.2462 23.9093 24.1799 24.3738C24.1135 24.8383 23.8653 25.2574 23.4899 25.539C23.1829 25.7671 22.811 25.8911 22.4285 25.8928Z" fill="white"/>
</g>
<defs>
<clipPath id="clip0_806_872">
<rect width="20.641" height="22.9999" fill="white" transform="translate(3.53003 3.00009)"/>
</clipPath>
</defs>
</svg>
