<svg width="28" height="28" viewBox="0 0 28 28" fill="none" xmlns="http://www.w3.org/2000/svg">
<g clip-path="url(#clip0_957_3)">
<path d="M25.7624 7.66545H21.0107C20.9631 7.66554 20.9174 7.64725 20.8827 7.61431C20.848 7.58136 20.8269 7.53625 20.824 7.48818V2.67818C20.826 2.6408 20.8384 2.60476 20.8596 2.57409C20.8808 2.54342 20.91 2.51936 20.944 2.50462C20.978 2.48987 21.0154 2.48503 21.052 2.49064C21.0886 2.49625 21.1228 2.51208 21.1509 2.53636L25.9027 7.34636C25.928 7.37347 25.9449 7.40759 25.9511 7.44441C25.9574 7.48122 25.9527 7.51908 25.9377 7.55321C25.9227 7.58735 25.8979 7.61622 25.8668 7.6362C25.8356 7.65617 25.7993 7.66635 25.7624 7.66545Z" fill="white"/>
<path d="M20.1003 8.41V1H2.16749C1.85785 1 1.56098 1.12451 1.34204 1.34615C1.12309 1.56778 1 1.86838 1 2.18182V19.9091C1 20.2225 1.12309 20.5231 1.34204 20.7448C1.56098 20.9664 1.85785 21.0909 2.16749 21.0909H7.14101C6.18493 19.7044 5.67152 18.0545 5.66996 16.3636C5.66996 15.2772 5.88148 14.2015 6.29218 13.1978C6.70289 12.1941 7.30477 11.2821 8.06365 10.5139C8.82254 9.74574 9.7235 9.13638 10.715 8.72063C11.7065 8.30489 12.7692 8.09091 13.8424 8.09091C14.9156 8.09091 15.9782 8.30489 16.9698 8.72063C17.9613 9.13638 18.8622 9.74574 19.6211 10.5139C20.38 11.2821 20.9819 12.1941 21.3926 13.1978C21.8033 14.2015 22.0148 15.2772 22.0148 16.3636C22.0133 18.0545 21.4998 19.7044 20.5438 21.0909H25.8208C26.1305 21.0909 26.4273 20.9664 26.6463 20.7448C26.8652 20.5231 26.9883 20.2225 26.9883 19.9091V8.41H20.1003Z" fill="white"/>
<path d="M14.0174 12.7473C12.9553 12.7473 11.9368 13.1744 11.1858 13.9346C10.4349 14.6948 10.0129 15.7258 10.0129 16.8009C10.0129 17.876 10.4349 18.9071 11.1858 19.6673C11.9368 20.4275 12.9553 20.8546 14.0174 20.8546C15.0774 20.8514 16.093 20.423 16.8414 19.6631C17.5899 18.9032 18.0104 17.874 18.0104 16.8009C18.0104 15.7279 17.5899 14.6986 16.8414 13.9387C16.093 13.1789 15.0774 12.7504 14.0174 12.7473ZM14.0174 14.4018C13.3981 14.4018 12.8043 14.6509 12.3664 15.0941C11.9286 15.5374 11.6824 16.1386 11.6824 16.7655C11.6824 16.8058 11.6745 16.8458 11.6593 16.8831C11.644 16.9203 11.6216 16.9542 11.5934 16.9827C11.5653 17.0113 11.5319 17.0339 11.4951 17.0493C11.4583 17.0648 11.4187 17.0727 11.3788 17.0727C11.2983 17.0727 11.2211 17.0404 11.1642 16.9827C11.1073 16.9251 11.0753 16.847 11.0753 16.7655C11.0783 15.9683 11.3935 15.2048 11.9514 14.6421C12.5094 14.0795 13.2649 13.7636 14.0524 13.7636C14.0917 13.7636 14.1308 13.7716 14.167 13.7872C14.2032 13.8028 14.2358 13.8256 14.263 13.8543C14.2903 13.883 14.3115 13.917 14.3255 13.9542C14.3394 13.9914 14.3459 14.0311 14.3443 14.0709C14.35 14.1158 14.3456 14.1613 14.3312 14.2041C14.3168 14.2469 14.2929 14.2858 14.2613 14.3177C14.2298 14.3497 14.1913 14.3739 14.149 14.3885C14.1068 14.4031 14.0616 14.4076 14.0174 14.4018Z" fill="white"/>
<path d="M22.1781 24.9436L19.6798 21.5045C19.5632 21.3502 19.413 21.2251 19.2409 21.139C19.0687 21.0529 18.8793 21.0082 18.6873 21.0082C19.757 19.8321 20.3528 18.2931 20.357 16.6945C20.357 14.9863 19.6865 13.348 18.4932 12.1401C17.3 10.9322 15.6815 10.2536 13.994 10.2536C12.3074 10.2568 10.6911 10.9364 9.49847 12.1436C8.30588 13.3508 7.63431 14.9873 7.63123 16.6945C7.63431 18.4018 8.30588 20.0383 9.49847 21.2455C10.6911 22.4527 12.3074 23.1323 13.994 23.1354C15.2033 23.1359 16.3872 22.783 17.4033 22.1191C17.3635 22.4506 17.4512 22.7849 17.6484 23.0527L20.1934 26.48C20.3099 26.6419 20.4629 26.7735 20.6395 26.8639C20.8161 26.9543 21.0114 27.001 21.2093 27C21.4873 27.0009 21.7578 26.9095 21.9797 26.74C22.1095 26.6354 22.2176 26.5059 22.2978 26.3589C22.378 26.2119 22.4287 26.0504 22.4472 25.8835C22.4656 25.7166 22.4514 25.5477 22.4053 25.3864C22.3591 25.2252 22.2818 25.0747 22.1781 24.9436ZM8.43701 16.6709C8.43701 15.1904 9.01719 13.7703 10.0503 12.7223C11.0834 11.6744 12.485 11.084 13.9475 11.0809C14.6727 11.0809 15.3908 11.2255 16.0608 11.5064C16.7307 11.7873 17.3394 12.1991 17.8522 12.7182C18.365 13.2373 18.7718 13.8535 19.0493 14.5317C19.3268 15.2099 19.4697 15.9368 19.4697 16.6709C19.4666 18.1514 18.8835 19.5702 17.8482 20.616C16.8129 21.6618 15.4101 22.2491 13.9475 22.2491C12.491 22.246 11.0946 21.6605 10.0625 20.6202C9.03045 19.5799 8.44624 18.1689 8.43701 16.6945V16.6709Z" fill="white"/>
</g>
<defs>
<clipPath id="clip0_957_3">
<rect width="26" height="26" fill="white" transform="translate(1 1)"/>
</clipPath>
</defs>
</svg>
