<svg width="27" height="24" viewBox="0 0 27 24" fill="none" xmlns="http://www.w3.org/2000/svg">
<path d="M15.3899 9.47239L6.58726 14.3561C6.53711 14.388 6.47849 14.4051 6.41855 14.4051C6.35862 14.4051 6.3 14.388 6.24985 14.3561L0.0880875 9.1011C0.049333 9.06782 0.0202897 9.02514 0.00391523 8.97743C-0.0124593 8.92971 -0.015641 8.87862 -0.00521835 8.82935C0.00520429 8.78007 0.0287858 8.73441 0.063194 8.69687C0.0976021 8.65933 0.141594 8.63132 0.190706 8.61564L26.4519 0.361822C26.5014 0.347817 26.5537 0.346796 26.6038 0.358772C26.6538 0.370747 26.6998 0.395324 26.737 0.430066C26.7742 0.464809 26.8013 0.508431 26.8156 0.556619C26.83 0.604808 26.831 0.655821 26.8187 0.704525L21.1704 21.3247C21.1572 21.3624 21.1364 21.3972 21.1093 21.427C21.0822 21.4568 21.0491 21.4811 21.0122 21.4984C20.9753 21.5157 20.9353 21.5256 20.8944 21.5277C20.8535 21.5297 20.8127 21.5238 20.7742 21.5103L13.9521 18.8543C13.8943 18.8291 13.8294 18.8238 13.768 18.8394C13.7067 18.855 13.6526 18.8905 13.6147 18.94L10.0496 23.5666C10.0088 23.6122 9.95434 23.6441 9.89379 23.6575C9.83324 23.671 9.76982 23.6655 9.71273 23.6417C9.65564 23.6179 9.60781 23.577 9.57609 23.5251C9.54436 23.4731 9.53034 23.4126 9.53615 23.3524L10.7978 15.984C10.7923 15.9413 10.7923 15.8981 10.7978 15.8555L15.6834 9.91507C15.7261 9.87093 15.7524 9.81413 15.7581 9.75374C15.7638 9.69335 15.7485 9.63291 15.7147 9.58195C15.681 9.531 15.6305 9.49251 15.5717 9.47266C15.5128 9.45281 15.4488 9.4527 15.3899 9.47239Z" fill="url(#paint0_linear_806_926)"/>
<defs>
<linearGradient id="paint0_linear_806_926" x1="-0.0112302" y1="-9.55806" x2="26.5961" y2="31.9192" gradientUnits="userSpaceOnUse">
<stop stop-color="#91EAE4"/>
<stop offset="0.458333" stop-color="#86A8E7"/>
<stop offset="0.9375" stop-color="#7F7FD5"/>
</linearGradient>
</defs>
</svg>
