<svg width="48" height="48" viewBox="0 0 48 48" fill="none" xmlns="http://www.w3.org/2000/svg">
<path d="M36.3167 25.8845C36.3838 25.3955 36.4173 24.8902 36.4173 24.3523C36.4173 23.8307 36.3838 23.3091 36.3 22.8201L39.7016 20.2448C40.0033 20.0166 40.087 19.5765 39.9027 19.2505L36.6854 13.839C36.4843 13.4804 36.0654 13.3663 35.6967 13.4804L31.6918 15.0452C30.854 14.4258 29.9658 13.9042 28.9772 13.513L28.3739 9.37294C28.3069 8.98174 27.9718 8.70465 27.5696 8.70465H21.1349C20.7327 8.70465 20.4144 8.98174 20.3473 9.37294L19.7441 13.513C18.7554 13.9042 17.8505 14.4421 17.0295 15.0452L13.0245 13.4804C12.6559 13.35 12.237 13.4804 12.0359 13.839L8.83529 19.2505C8.63421 19.5928 8.70124 20.0166 9.03638 20.2448L12.438 22.8201C12.3543 23.3091 12.2872 23.847 12.2872 24.3523C12.2872 24.8576 12.3207 25.3955 12.4045 25.8845L9.00286 28.4598C8.70124 28.688 8.61745 29.1281 8.80178 29.4541L12.0191 34.8656C12.2202 35.2242 12.6391 35.3383 13.0078 35.2242L17.0127 33.6594C17.8505 34.2788 18.7387 34.8004 19.7273 35.1916L20.3306 39.3317C20.4144 39.7229 20.7327 40 21.1349 40H27.5696C27.9718 40 28.3069 39.7229 28.3572 39.3317L28.9604 35.1916C29.9491 34.8004 30.854 34.2788 31.675 33.6594L35.68 35.2242C36.0486 35.3546 36.4675 35.2242 36.6686 34.8656L39.886 29.4541C40.087 29.0955 40.0033 28.688 39.6849 28.4598L36.3167 25.8845ZM24.3523 30.2202C21.0344 30.2202 18.3197 27.5796 18.3197 24.3523C18.3197 21.125 21.0344 18.4844 24.3523 18.4844C27.6701 18.4844 30.3848 21.125 30.3848 24.3523C30.3848 27.5796 27.6701 30.2202 24.3523 30.2202Z" fill="url(#paint0_linear_957_240)"/>
<defs>
<linearGradient id="paint0_linear_957_240" x1="8.70459" y1="-4.59586" x2="46.259" y2="46.259" gradientUnits="userSpaceOnUse">
<stop stop-color="#91EAE4"/>
<stop offset="0.458333" stop-color="#86A8E7"/>
<stop offset="0.9375" stop-color="#7F7FD5"/>
</linearGradient>
</defs>
</svg>
