<svg width="29" height="28" viewBox="0 0 29 28" fill="none" xmlns="http://www.w3.org/2000/svg">
<g clip-path="url(#clip0_806_730)">
<path d="M27.2555 22.9369C27.2584 23.4762 27.1194 24.0068 26.8525 24.4754C26.5856 24.9441 26.2 25.3343 25.7347 25.6069C25.2693 25.8795 24.7405 26.025 24.2012 26.0286C23.6619 26.0323 23.1311 25.8941 22.662 25.6278C22.193 25.3616 21.8022 24.9767 21.5289 24.5118C21.2556 24.0468 21.1095 23.5182 21.105 22.9789C21.1005 22.4396 21.2378 21.9085 21.5034 21.4391C21.7689 20.9697 22.1533 20.5784 22.6179 20.3044V13.3295H15.8768V20.1199C16.5243 20.4025 17.0548 20.8994 17.379 21.5272C17.7032 22.1549 17.8014 22.8752 17.6571 23.5668C17.5127 24.2584 17.1345 24.8792 16.5863 25.3249C16.038 25.7705 15.3532 26.0138 14.6466 26.0138C13.9401 26.0138 13.2551 25.7705 12.7068 25.3249C12.1586 24.8792 11.7805 24.2584 11.6361 23.5668C11.4918 22.8752 11.5899 22.1549 11.9141 21.5272C12.2383 20.8994 12.7689 20.4025 13.4165 20.1199V13.3295H10.8086L17.2668 10.8693H22.8762C23.4602 10.8693 24.0203 11.1013 24.4332 11.5142C24.8462 11.9272 25.0782 12.4872 25.0782 13.0712V19.9969C25.7081 20.1892 26.2596 20.5787 26.6516 21.1079C27.0436 21.6372 27.2553 22.2783 27.2555 22.9369Z" fill="url(#paint0_linear_806_730)"/>
<path d="M8.16389 22.937C8.16514 23.4923 8.01601 24.0376 7.73232 24.515C7.44863 24.9923 7.04099 25.384 6.55264 25.6484C6.06429 25.9128 5.51347 26.0399 4.95865 26.0164C4.40383 25.993 3.8656 25.8198 3.40131 25.5151C2.93702 25.2105 2.56386 24.7858 2.32148 24.2862C2.07911 23.7866 1.97664 23.2306 2.02476 22.6773C2.07288 22.1241 2.26993 21.5943 2.59493 21.144C2.91994 20.6937 3.3608 20.3398 3.87072 20.1199V15.9743L6.331 15.0394V20.1199C6.87501 20.3635 7.33726 20.7589 7.66234 21.2585C7.98743 21.7581 8.16155 22.3409 8.16389 22.937Z" fill="url(#paint1_linear_806_730)"/>
<path d="M15.8768 3.23014V6.12093L13.4165 7.06816V3.23014C13.4165 2.90389 13.5461 2.59101 13.7767 2.36032C14.0074 2.12962 14.3204 2 14.6466 2C14.9729 2 15.2857 2.12962 15.5164 2.36032C15.7471 2.59101 15.8768 2.90389 15.8768 3.23014Z" fill="url(#paint2_linear_806_730)"/>
<path d="M27.0342 4.31262L1.73022 14.1537" stroke="url(#paint3_linear_806_730)" stroke-width="2" stroke-linecap="round" stroke-linejoin="round"/>
</g>
<defs>
<linearGradient id="paint0_linear_806_730" x1="10.8086" y1="4.4265" x2="28.5159" y2="30.4417" gradientUnits="userSpaceOnUse">
<stop stop-color="#91EAE4"/>
<stop offset="0.458333" stop-color="#86A8E7"/>
<stop offset="0.9375" stop-color="#7F7FD5"/>
</linearGradient>
<linearGradient id="paint1_linear_806_730" x1="2.01318" y1="10.373" x2="15.2891" y2="20.444" gradientUnits="userSpaceOnUse">
<stop stop-color="#91EAE4"/>
<stop offset="0.458333" stop-color="#86A8E7"/>
<stop offset="0.9375" stop-color="#7F7FD5"/>
</linearGradient>
<linearGradient id="paint2_linear_806_730" x1="13.4165" y1="-0.15397" x2="19.2583" y2="3.68623" gradientUnits="userSpaceOnUse">
<stop stop-color="#91EAE4"/>
<stop offset="0.458333" stop-color="#86A8E7"/>
<stop offset="0.9375" stop-color="#7F7FD5"/>
</linearGradient>
<linearGradient id="paint3_linear_806_730" x1="1.73022" y1="0.130152" x2="8.28684" y2="22.9596" gradientUnits="userSpaceOnUse">
<stop stop-color="#91EAE4"/>
<stop offset="0.458333" stop-color="#86A8E7"/>
<stop offset="0.9375" stop-color="#7F7FD5"/>
</linearGradient>
<clipPath id="clip0_806_730">
<rect width="27.7642" height="24" fill="white" transform="translate(0.5 2)"/>
</clipPath>
</defs>
</svg>
